<?xml version="1.0" encoding="utf-8"?>
<!-- Generator: Adobe Illustrator 16.0.0, SVG Export Plug-In . SVG Version: 6.00 Build 0)  -->
<!DOCTYPE svg PUBLIC "-//W3C//DTD SVG 1.1//EN" "http://www.w3.org/Graphics/SVG/1.1/DTD/svg11.dtd">
<svg version="1.1" id="Layer_1" xmlns="http://www.w3.org/2000/svg" xmlns:xlink="http://www.w3.org/1999/xlink" x="0px" y="0px"
	 width="170px" height="170px" viewBox="0 0 170 170" enable-background="new 0 0 170 170" xml:space="preserve">
<path fill="#FFB23F" d="M169.5,85c0,46.67-37.839,84.5-84.5,84.5S0.5,131.67,0.5,85S38.339,0.5,85,0.5S169.5,38.33,169.5,85z"/>
<g>
	
		<rect x="27.899" y="59.5" fill="#FAAF3B" stroke="#FFFFFF" stroke-width="4" stroke-linejoin="round" width="51.001" height="51.001"/>
	<g>
		<g>
			<defs>
				<rect id="SVGID_1_" x="91.097" y="59.5" width="51.001" height="51.001"/>
			</defs>
			<clipPath id="SVGID_2_">
				<use xlink:href="#SVGID_1_"  overflow="visible"/>
			</clipPath>
			<g clip-path="url(#SVGID_2_)">
				<g>
					<defs>
						
							<rect id="SVGID_3_" x="96.25" y="36.026" transform="matrix(0.7071 0.7071 -0.7071 0.7071 73.622 -65.7738)" width="39.914" height="39.914"/>
					</defs>
					<clipPath id="SVGID_4_">
						<use xlink:href="#SVGID_3_"  overflow="visible"/>
					</clipPath>
					
						<line clip-path="url(#SVGID_4_)" fill="none" stroke="#FFFFFF" stroke-width="1.5" x1="114.698" y1="82.893" x2="143.117" y2="54.473"/>
					
						<line clip-path="url(#SVGID_4_)" fill="none" stroke="#FFFFFF" stroke-width="1.5" x1="109.054" y1="77.248" x2="137.474" y2="48.829"/>
					
						<line clip-path="url(#SVGID_4_)" fill="none" stroke="#FFFFFF" stroke-width="1.5" x1="103.408" y1="71.604" x2="131.828" y2="43.184"/>
					
						<line clip-path="url(#SVGID_4_)" fill="none" stroke="#FFFFFF" stroke-width="1.5" x1="97.764" y1="65.958" x2="126.183" y2="37.54"/>
					
						<line clip-path="url(#SVGID_4_)" fill="none" stroke="#FFFFFF" stroke-width="1.5" x1="92.12" y1="60.313" x2="120.538" y2="31.895"/>
					
						<line clip-path="url(#SVGID_4_)" fill="none" stroke="#FFFFFF" stroke-width="1.5" x1="84.377" y1="68.056" x2="89.866" y2="62.568"/>
					
						<line clip-path="url(#SVGID_4_)" fill="none" stroke="#FFFFFF" stroke-width="1.5" x1="111.876" y1="80.07" x2="140.294" y2="51.651"/>
					
						<line clip-path="url(#SVGID_4_)" fill="none" stroke="#FFFFFF" stroke-width="1.5" x1="106.231" y1="74.425" x2="134.65" y2="46.006"/>
					
						<line clip-path="url(#SVGID_4_)" fill="none" stroke="#FFFFFF" stroke-width="1.5" x1="100.587" y1="68.781" x2="129.005" y2="40.361"/>
					
						<line clip-path="url(#SVGID_4_)" fill="none" stroke="#FFFFFF" stroke-width="1.5" x1="94.94" y1="63.136" x2="123.361" y2="34.717"/>
					
						<line clip-path="url(#SVGID_4_)" fill="none" stroke="#FFFFFF" stroke-width="1.5" x1="89.297" y1="57.492" x2="117.717" y2="29.072"/>
					
						<line clip-path="url(#SVGID_4_)" fill="none" stroke="#FFFFFF" stroke-width="1.5" x1="81.554" y1="65.233" x2="87.043" y2="59.746"/>
				</g>
			</g>
			<g clip-path="url(#SVGID_2_)">
				<g>
					<defs>
						
							<rect id="SVGID_5_" x="124.474" y="64.249" transform="matrix(0.7071 0.7071 -0.7071 0.7071 101.8437 -77.4643)" width="39.914" height="39.914"/>
					</defs>
					<clipPath id="SVGID_6_">
						<use xlink:href="#SVGID_5_"  overflow="visible"/>
					</clipPath>
					
						<line clip-path="url(#SVGID_6_)" fill="none" stroke="#FFFFFF" stroke-width="1.5" x1="142.922" y1="111.116" x2="171.341" y2="82.696"/>
					
						<line clip-path="url(#SVGID_6_)" fill="none" stroke="#FFFFFF" stroke-width="1.5" x1="137.277" y1="105.472" x2="165.697" y2="77.052"/>
					
						<line clip-path="url(#SVGID_6_)" fill="none" stroke="#FFFFFF" stroke-width="1.5" x1="131.632" y1="99.825" x2="160.052" y2="71.407"/>
					
						<line clip-path="url(#SVGID_6_)" fill="none" stroke="#FFFFFF" stroke-width="1.5" x1="125.987" y1="94.182" x2="154.406" y2="65.763"/>
					
						<line clip-path="url(#SVGID_6_)" fill="none" stroke="#FFFFFF" stroke-width="1.5" x1="120.344" y1="88.536" x2="148.762" y2="60.118"/>
					
						<line clip-path="url(#SVGID_6_)" fill="none" stroke="#FFFFFF" stroke-width="1.5" x1="112.601" y1="96.279" x2="118.09" y2="90.79"/>
					
						<line clip-path="url(#SVGID_6_)" fill="none" stroke="#FFFFFF" stroke-width="1.5" x1="140.1" y1="108.294" x2="168.518" y2="79.875"/>
					
						<line clip-path="url(#SVGID_6_)" fill="none" stroke="#FFFFFF" stroke-width="1.5" x1="134.455" y1="102.648" x2="162.874" y2="74.229"/>
					
						<line clip-path="url(#SVGID_6_)" fill="none" stroke="#FFFFFF" stroke-width="1.5" x1="128.811" y1="97.004" x2="157.229" y2="68.584"/>
					
						<line clip-path="url(#SVGID_6_)" fill="none" stroke="#FFFFFF" stroke-width="1.5" x1="123.165" y1="91.36" x2="151.585" y2="62.94"/>
					
						<line clip-path="url(#SVGID_6_)" fill="none" stroke="#FFFFFF" stroke-width="1.5" x1="117.521" y1="85.715" x2="145.94" y2="57.295"/>
					
						<line clip-path="url(#SVGID_6_)" fill="none" stroke="#FFFFFF" stroke-width="1.5" x1="109.779" y1="93.456" x2="115.267" y2="87.969"/>
				</g>
			</g>
			<g clip-path="url(#SVGID_2_)">
				<g>
					<defs>
						
							<rect id="SVGID_7_" x="68.026" y="64.249" transform="matrix(0.7071 0.7071 -0.7071 0.7071 85.311 -37.5504)" width="39.914" height="39.914"/>
					</defs>
					<clipPath id="SVGID_8_">
						<use xlink:href="#SVGID_7_"  overflow="visible"/>
					</clipPath>
					
						<line clip-path="url(#SVGID_8_)" fill="none" stroke="#FFFFFF" stroke-width="1.5" x1="86.475" y1="111.116" x2="114.894" y2="82.696"/>
					
						<line clip-path="url(#SVGID_8_)" fill="none" stroke="#FFFFFF" stroke-width="1.5" x1="80.83" y1="105.472" x2="109.25" y2="77.052"/>
					
						<line clip-path="url(#SVGID_8_)" fill="none" stroke="#FFFFFF" stroke-width="1.5" x1="75.184" y1="99.825" x2="103.604" y2="71.407"/>
					
						<line clip-path="url(#SVGID_8_)" fill="none" stroke="#FFFFFF" stroke-width="1.5" x1="69.54" y1="94.182" x2="97.96" y2="65.763"/>
					
						<line clip-path="url(#SVGID_8_)" fill="none" stroke="#FFFFFF" stroke-width="1.5" x1="63.895" y1="88.536" x2="92.314" y2="60.118"/>
					
						<line clip-path="url(#SVGID_8_)" fill="none" stroke="#FFFFFF" stroke-width="1.5" x1="56.153" y1="96.279" x2="61.642" y2="90.79"/>
					
						<line clip-path="url(#SVGID_8_)" fill="none" stroke="#FFFFFF" stroke-width="1.5" x1="83.651" y1="108.294" x2="112.07" y2="79.875"/>
					
						<line clip-path="url(#SVGID_8_)" fill="none" stroke="#FFFFFF" stroke-width="1.5" x1="78.007" y1="102.648" x2="106.427" y2="74.229"/>
					
						<line clip-path="url(#SVGID_8_)" fill="none" stroke="#FFFFFF" stroke-width="1.5" x1="72.362" y1="97.004" x2="100.781" y2="68.584"/>
					
						<line clip-path="url(#SVGID_8_)" fill="none" stroke="#FFFFFF" stroke-width="1.5" x1="66.718" y1="91.36" x2="95.138" y2="62.94"/>
					
						<line clip-path="url(#SVGID_8_)" fill="none" stroke="#FFFFFF" stroke-width="1.5" x1="61.073" y1="85.715" x2="89.493" y2="57.295"/>
					
						<line clip-path="url(#SVGID_8_)" fill="none" stroke="#FFFFFF" stroke-width="1.5" x1="53.331" y1="93.456" x2="58.819" y2="87.969"/>
				</g>
			</g>
			<g clip-path="url(#SVGID_2_)">
				<g>
					<defs>
						
							<rect id="SVGID_9_" x="96.25" y="92.472" transform="matrix(0.7071 0.7071 -0.7071 0.7071 113.5357 -49.241)" width="39.914" height="39.914"/>
					</defs>
					<clipPath id="SVGID_10_">
						<use xlink:href="#SVGID_9_"  overflow="visible"/>
					</clipPath>
					
						<line clip-path="url(#SVGID_10_)" fill="none" stroke="#FFFFFF" stroke-width="1.5" x1="114.698" y1="139.34" x2="143.117" y2="110.92"/>
					
						<line clip-path="url(#SVGID_10_)" fill="none" stroke="#FFFFFF" stroke-width="1.5" x1="109.054" y1="133.695" x2="137.474" y2="105.275"/>
					
						<line clip-path="url(#SVGID_10_)" fill="none" stroke="#FFFFFF" stroke-width="1.5" x1="103.408" y1="128.049" x2="131.828" y2="99.631"/>
					
						<line clip-path="url(#SVGID_10_)" fill="none" stroke="#FFFFFF" stroke-width="1.5" x1="97.764" y1="122.405" x2="126.183" y2="93.986"/>
					
						<line clip-path="url(#SVGID_10_)" fill="none" stroke="#FFFFFF" stroke-width="1.5" x1="92.12" y1="116.761" x2="120.538" y2="88.342"/>
					
						<line clip-path="url(#SVGID_10_)" fill="none" stroke="#FFFFFF" stroke-width="1.5" x1="84.377" y1="124.503" x2="89.866" y2="119.014"/>
					
						<line clip-path="url(#SVGID_10_)" fill="none" stroke="#FFFFFF" stroke-width="1.5" x1="111.876" y1="136.518" x2="140.294" y2="108.098"/>
					
						<line clip-path="url(#SVGID_10_)" fill="none" stroke="#FFFFFF" stroke-width="1.5" x1="106.231" y1="130.872" x2="134.65" y2="102.453"/>
					
						<line clip-path="url(#SVGID_10_)" fill="none" stroke="#FFFFFF" stroke-width="1.5" x1="100.587" y1="125.229" x2="129.005" y2="96.809"/>
					
						<line clip-path="url(#SVGID_10_)" fill="none" stroke="#FFFFFF" stroke-width="1.5" x1="94.94" y1="119.583" x2="123.361" y2="91.163"/>
					
						<line clip-path="url(#SVGID_10_)" fill="none" stroke="#FFFFFF" stroke-width="1.5" x1="89.297" y1="113.938" x2="117.717" y2="85.519"/>
					
						<line clip-path="url(#SVGID_10_)" fill="none" stroke="#FFFFFF" stroke-width="1.5" x1="81.554" y1="121.68" x2="87.043" y2="116.192"/>
				</g>
			</g>
		</g>
		<path fill="#FFFFFF" d="M142.098,112.718H91.097c-1.225,0-2.217-0.993-2.217-2.217V59.5c0-1.225,0.992-2.217,2.217-2.217h51.001
			c1.225,0,2.218,0.993,2.218,2.217v51.001C144.315,111.725,143.322,112.718,142.098,112.718z M93.313,108.283h46.566V61.717H93.313
			V108.283z"/>
	</g>
</g>
</svg>
